<svg height="102" viewBox="0 0 254 102" width="254" xmlns="http://www.w3.org/2000/svg"><path d="m459.200049 1308.21327c-7.332501 1.29291-14.326224-3.6113-15.620918-10.95387-1.294694-7.34258 3.599916-14.34303 10.932417-15.63594 7.332501-1.29292 14.326224 3.61129 15.620918 10.95387 1.294694 7.34257-3.599916 14.34302-10.932417 15.63594zm37.933336-6.68868c-7.332501 1.29292-14.326224-3.61129-15.620918-10.95387-1.294694-7.34257 3.599916-14.34302 10.932417-15.63593 7.332501-1.29292 14.326224 3.61129 15.620918 10.95387 1.294694 7.34257-3.599916 14.34302-10.932417 15.63593zm37.933335-6.68867c-7.332501 1.29292-14.326224-3.61129-15.620917-10.95387-1.294694-7.34257 3.599916-14.34302 10.932417-15.63594 7.332501-1.29291 14.326224 3.6113 15.620918 10.95387 1.294693 7.34258-3.599917 14.34303-10.932418 15.63594zm39.147637 32.19114c-7.332501 1.29292-14.326224-3.61129-15.620918-10.95387-1.294694-7.34257 3.599916-14.34302 10.932417-15.63594 7.332501-1.29291 14.326224 3.6113 15.620918 10.95387 1.294694 7.34258-3.599916 14.34303-10.932417 15.63594zm37.933335-6.68867c-7.332501 1.29292-14.326224-3.61129-15.620917-10.95387-1.294694-7.34257 3.599916-14.34302 10.932417-15.63594 7.332501-1.29291 14.326224 3.6113 15.620918 10.95387 1.294693 7.34258-3.599917 14.34303-10.932418 15.63594zm37.933336-6.68867c-7.332501 1.29292-14.326224-3.61129-15.620918-10.95387-1.294694-7.34257 3.599916-14.34302 10.932417-15.63594 7.332501-1.29291 14.326224 3.6113 15.620918 10.95387 1.294694 7.34258-3.599916 14.34303-10.932417 15.63594zm-37.54034 32.86419c-5.569881.98212-10.86261-2.63085-11.821643-8.06979-.959032-5.43894 2.778799-10.64425 8.348679-11.62637 5.569881-.98212 10.862611 2.63085 11.821643 8.0698.959033 5.43894-2.778798 10.64424-8.348679 11.62636zm28.814745-5.08082c-5.56988.98212-10.86261-2.63085-11.821642-8.06979-.959033-5.43894 2.778798-10.64424 8.348679-11.62636 5.56988-.98212 10.86261 2.63085 11.821642 8.06979.959033 5.43894-2.778798 10.64424-8.348679 11.62636zm28.814746-5.08081c-5.569881.98212-10.862611-2.63085-11.821643-8.0698-.959032-5.43894 2.778799-10.64424 8.348679-11.62636 5.569881-.98212 10.86261 2.63085 11.821643 8.06979.959032 5.43895-2.778799 10.64425-8.348679 11.62637zm-232.44123-60.85235c-5.569881.98212-10.86261-2.63085-11.821643-8.06979-.959032-5.43894 2.778799-10.64424 8.348679-11.62636 5.569881-.98212 10.862611 2.63084 11.821643 8.06979.959032 5.43894-2.778799 10.64424-8.348679 11.62636zm28.814745-5.08082c-5.56988.98212-10.86261-2.63084-11.821642-8.06979-.959033-5.43894 2.778798-10.64424 8.348679-11.62636 5.56988-.98212 10.86261 2.63085 11.821642 8.06979.959033 5.43894-2.778798 10.64424-8.348679 11.62636zm28.814746-5.08081c-5.569881.98212-10.862611-2.63085-11.821643-8.06979-.959032-5.43895 2.778799-10.64425 8.348679-11.62637 5.569881-.98212 10.86261 2.63085 11.821643 8.06979.959032 5.43895-2.778799 10.64425-8.348679 11.62637z" fill="#262626" fill-rule="evenodd" transform="translate(-425 -1245)"/></svg>