<svg height="25" viewBox="0 0 24 25" width="24" xmlns="http://www.w3.org/2000/svg"><path d="m493.000024 1294.5c-3.259029 0-3.667681.01381-4.947609.07221-1.27726.05826-2.149583.26113-2.912871.5578-.789106.30662-1.458317.71694-2.12548 1.38405-.667116.66717-1.077435 1.33638-1.384055 2.12548-.296665.76329-.499539 1.63562-.557796 2.91288-.058399 1.27992-.072213 1.68858-.072213 4.9476 0 3.25898.013814 3.66764.072213 4.94756.058257 1.27726.261131 2.14959.557796 2.91288.30662.7891.716939 1.45831 1.384055 2.12548.667163.66711 1.336374 1.07743 2.12548 1.3841.763288.29662 1.635611.49949 2.912871.55775 1.279928.0584 1.68858.07221 4.947609.07221 3.258981 0 3.667633-.01381 4.947561-.07221 1.27726-.05826 2.149583-.26113 2.912871-.55775.789106-.30667 1.458317-.71699 2.12548-1.3841.667116-.66717 1.077435-1.33638 1.384104-2.12548.296616-.76329.49949-1.63562.557747-2.91288.058399-1.27992.072213-1.68858.072213-4.94756 0-3.25902-.013814-3.66768-.072213-4.9476-.058257-1.27726-.261131-2.14959-.557747-2.91288-.306669-.7891-.716988-1.45831-1.384104-2.12548-.667163-.66711-1.336374-1.07743-2.12548-1.38405-.763288-.29667-1.635611-.49954-2.912871-.5578-1.279928-.0584-1.68858-.07221-4.947561-.07221zm0 2.16216c3.204106 0 3.583654.01224 4.849006.06997 1.169988.05335 1.805379.24884 2.228226.41318.560129.21769.959875.47772 1.379769.89767.419942.41989.679976.81963.897665 1.37976.164337.42285.359827 1.05824.413177 2.22823.057733 1.26535.069975 1.6449.069975 4.84905 0 3.20411-.012242 3.58366-.069975 4.84901-.05335 1.16999-.24884 1.80538-.413177 2.22823-.217689.56013-.477723.95987-.897665 1.37976-.419894.41995-.81964.67998-1.379769.89767-.422847.16434-1.058238.35983-2.228226.41318-1.265162.05773-1.644662.06997-4.849006.06997-3.204392 0-3.583845-.01224-4.849054-.06997-1.169988-.05335-1.805379-.24884-2.228226-.41318-.560129-.21769-.959875-.47772-1.379769-.89767-.419894-.41989-.679976-.81963-.897665-1.37976-.164337-.42285-.359827-1.05824-.413177-2.22823-.057733-1.26535-.069974-1.6449-.069974-4.84901 0-3.20415.012241-3.5837.069974-4.84905.05335-1.16999.24884-1.80538.413177-2.22823.217689-.56013.477723-.95987.897665-1.37976.419894-.41995.81964-.67998 1.379769-.89767.422847-.16434 1.058238-.35983 2.228226-.41318 1.265352-.05773 1.6449-.06997 4.849054-.06997zm0 3.67568c-3.403312 0-6.162183 2.75887-6.162183 6.16218 0 3.40327 2.758871 6.16214 6.162183 6.16214 3.403264 0 6.162134-2.75887 6.162134-6.16214 0-3.40331-2.75887-6.16218-6.162134-6.16218zm0 10.16216c-2.209174 0-4.000024-1.79085-4.000024-3.99998 0-2.20917 1.79085-4.00002 4.000024-4.00002 2.209126 0 3.999976 1.79085 3.999976 4.00002 0 2.20913-1.79085 3.99998-3.999976 3.99998zm7.845618-10.40562c0 .7953-.644727 1.43998-1.440026 1.43998-.795251 0-1.439978-.64468-1.439978-1.43998 0-.79529.644727-1.44002 1.439978-1.44002.795299 0 1.440026.64473 1.440026 1.44002z" fill="#fff" transform="translate(-481 -1294)"/></svg>