<svg height="21" viewBox="0 0 25 21" width="25" xmlns="http://www.w3.org/2000/svg"><path d="m624 1278.48602c-.918589.42167-1.907613.70683-2.945061.83424 1.059459-.65525 1.872395-1.69426 2.255385-2.93196-.991958.60672-2.088102 1.0481-3.259082 1.28472-.933263-1.0299-2.267125-1.67302-3.743324-1.67302-2.830604 0-5.127076 2.37378-5.127076 5.30119 0 .4156.044022.81907.132065 1.20737-4.262781-.22145-8.041322-2.3298-10.572577-5.54085-.441686.7857-.694078 1.6973-.694078 2.66804 0 1.83836.905383 3.46132 2.281799 4.41235-.83935-.02578-1.631743-.26695-2.324353-.66132v.06522c0 2.56945 1.76821 4.71268 4.116042 5.19805-.429947.12438-.883372.18657-1.351471.18657-.330164 0-.65299-.03185-.965546-.09404.652991 2.10531 2.54593 3.63878 4.791044 3.67974-1.755004 1.42275-3.967835 2.27064-6.36996 2.27064-.413805 0-.823209-.02427-1.223807-.07281 2.270059 1.50163 4.96713 2.37985 7.862299 2.37985 9.435347 0 14.593239-8.07692 14.593239-15.08299 0-.23055-.004402-.46111-.013207-.68711 1.002231-.74778 1.872396-1.6806 2.557669-2.74388" fill="#181818" transform="translate(-599 -1276)"/></svg>