<svg height="20" viewBox="0 0 28 20" width="28" xmlns="http://www.w3.org/2000/svg"><path d="m489.000925 1227-.000925-8 8 4.01379zm16.719075-9.68579s-.273875-1.95939-1.113-2.82223c-1.064875-1.13298-2.258375-1.13831-2.80525-1.20407-3.91825-.28791-9.795625-.28791-9.795625-.28791h-.01225s-5.877375 0-9.795625.28791c-.54775.06576-1.740375.07109-2.806125 1.20407-.839125.86284-1.112125 2.82223-1.112125 2.82223s-.28 2.30151-.28 4.60213v2.15755c0 2.3015.28 4.60212.28 4.60212s.273 1.95939 1.112125 2.82223c1.06575 1.13299 2.464875 1.09744 3.087875 1.21563 2.24.2186 9.52.28613 9.52.28613s5.8835-.00889 9.80175-.2968c.546875-.06664 1.740375-.07197 2.80525-1.20496.839125-.86284 1.113-2.82223 1.113-2.82223s.28-2.30062.28-4.60212v-2.15755c0-2.30062-.28-4.60213-.28-4.60213z" fill="#fff" transform="translate(-478 -1213)"/></svg>